# xmcd CD database file generated by Grip 3.3.1
# 
# Track frame offsets:
#       150
#       22797
#       45833
#       64383
#       79053
#       98886
#       117634
#       138410
#       154972
#       189790
#       205635
#       222280
#       268256
#       294879
#       311956
# 
# Disc length: 4588 seconds
# 
# Revision: 1
# Processed by: cddbd v1.5.2PL0 Copyright (c) Steve Scherf et al.
# Submitted via: Grip 3.3.1
# 
DISCID=d411ea0f
DTITLE=Various Artist - May Your Song Always Be Sung: The Songs  of Bob Dylan V
DTITLE=ol 3, Cd 1
DYEAR=1900
DGENRE=Rock
TTITLE0=Alastair Mook - Let Me Die in My Footsteps
TTITLE1=Rick Danko - This Wheel's on Fire
TTITLE2=Julian Dawson - When I Paint my Masterpiece
TTITLE3=Robert Deeble with Mandy Troxel - Song to Woody
TTITLE4=Deebie and Troxel - Boots of Spanish Leather
TTITLE5=Two Approaching Riders - Dark Eyes
TTITLE6=Billy Goodman - Billy 1
TTITLE7=La Gran Esperanza Blanca - One Too Many Mornings
TTITLE8=Martin Simpson - Highway 61
TTITLE9=Develish Doubledylans - Shot of Love
TTITLE10=Tolo Marton - All Along the Watchtower
TTITLE11=Black Cat Bone feat. Mick Taylor - Blind Willie McTell
TTITLE12=Zimmermen - Not Dark Yet
TTITLE13=Andy Hill and Renée Safier - Seven Curses
TTITLE14=onelinedrawing - With God on Our Side
EXTD=Compilation of cover versions of Bob Dylan songs
EXTT0=
EXTT1=
EXTT2=
EXTT3=
EXTT4=
EXTT5=
EXTT6=
EXTT7=
EXTT8=
EXTT9=
EXTT10=
EXTT11=
EXTT12=
EXTT13=
EXTT14=
PLAYORDER=
